PathFileType	4	(X/Y/Z)	C:\Users\Willi\SynologyDrive\Deimel_MSc_Deadlift\Athlete_03\Athlete_3_22_07_06\dl_85\marker_experimental.trc
DataRate	CameraRate	NumFrames	NumMarkers	Units	OrigDataRate	OrigDataStartFrame	OrigNumFrames
200.000000	200.000000	4	59	mm	200.000000	798	1597
Frame#	Time	BR			GLAB			RFHD			LFHD			C7			T6			SPINMOL			SPINM2			SPINM3			BELTOL			BELT2			BELT3			SACROL			SACR2			SACR3			LTHOL			LTH2			LTH3			LSHAOL			LSHA2			LSHA3			LHEE			LTOE			LM5			RTHOL			RTH2			RTH3			RSHAOL			RSHA2			RSHA3			RHEE			RTOE			RM5			STRN			XIPH			LACR			LUAOL			LUA3			LLAOL			LLA2			LLA3			LWRU			RACR			RUAOL			RUA2			RUA3			RLAOL			RLA2			RLA3			RWRU			LUA2			BL			T12			USERMO0			USERMO1			USERMO2			USERMO3			USERMO4			USERMO5			
		X1	Y1	Z1	X2	Y2	Z2	X3	Y3	Z3	X4	Y4	Z4	X5	Y5	Z5	X6	Y6	Z6	X7	Y7	Z7	X8	Y8	Z8	X9	Y9	Z9	X10	Y10	Z10	X11	Y11	Z11	X12	Y12	Z12	X13	Y13	Z13	X14	Y14	Z14	X15	Y15	Z15	X16	Y16	Z16	X17	Y17	Z17	X18	Y18	Z18	X19	Y19	Z19	X20	Y20	Z20	X21	Y21	Z21	X22	Y22	Z22	X23	Y23	Z23	X24	Y24	Z24	X25	Y25	Z25	X26	Y26	Z26	X27	Y27	Z27	X28	Y28	Z28	X29	Y29	Z29	X30	Y30	Z30	X31	Y31	Z31	X32	Y32	Z32	X33	Y33	Z33	X34	Y34	Z34	X35	Y35	Z35	X36	Y36	Z36	X37	Y37	Z37	X38	Y38	Z38	X39	Y39	Z39	X40	Y40	Z40	X41	Y41	Z41	X42	Y42	Z42	X43	Y43	Z43	X44	Y44	Z44	X45	Y45	Z45	X46	Y46	Z46	X47	Y47	Z47	X48	Y48	Z48	X49	Y49	Z49	X50	Y50	Z50	X51	Y51	Z51	X52	Y52	Z52	X53	Y53	Z53	X54	Y54	Z54	X55	Y55	Z55	X56	Y56	Z56	X57	Y57	Z57	X58	Y58	Z58	X59	Y59	Z59	

799	3.99	200.4911346435547	645.6741333007812	-97.14086151123043	330.298828125	1477.903442382812	-1204.878173828125	286.9404296875	1524.191528320312	-1127.980590820312	290.089111328125	1524.255004882812	-1287.29248046875	71.47666168212891	1462.45263671875	-1212.162719726562	-24.31766128540039	1265.810546875	-1220.306518554688	-33.22672653198242	1237.778686523438	-1223.882934570312	-51.63336563110352	1182.121215820312	-1169.57275390625	-41.94199371337891	1176.742065429688	-1217.9326171875	-66.85594177246094	1099.173950195312	-1218.459594726562	-71.57147216796875	1039.283569335938	-1165.918334960938	-75.14474487304688	1037.621459960938	-1215.882568359375	-75.37957763671875	986.9342651367189	-1235.167724609375	-66.58921051025391	995.9904785156251	-1185.831420898438	-100.6057891845703	940.2653808593751	-1196.073608398438	74.06381225585938	754.1785888671876	-1440.276245117188	42.59694671630859	683.6148071289064	-1418.97607421875	86.60984039306641	693.6314697265626	-1441.490234375	100.4569549560547	346.7727355957032	-1451.173095703125	63.80949783325195	277.5615539550782	-1443.108642578125	111.2423553466797	286.1295166015626	-1448.712768554688	38.90582275390625	66.33169555664071	-1372.302368164062	249.1345062255859	74.56031036376962	-1379.086181640625	206.821044921875	52.453224182129	-1486.24560546875	66.82427978515625	723.9614257812501	-989.2686157226562	116.5201950073242	665.2999877929689	-967.3857421875	72.27926635742188	661.9154052734376	-990.754150390625	80.97111511230469	339.0647583007813	-974.9253540039062	126.4888534545898	273.7933044433594	-972.4669799804688	77.2086181640625	278.8740844726563	-983.3547973632812	45.64628982543945	64.28746032714851	-1070.522827148438	253.2311706542969	67.59018707275396	-1039.695190429688	200.7036437988281	66.43918609619146	-943.1865844726562	204.8340606689453	1357.226806640625	-1218.192626953125	249.6554870605469	1210.14599609375	-1213.598388671875	126.0637435913086	1351.85498046875	-1427.0966796875	128.1165618896484	1198.3642578125	-1484.417236328125	159.5481414794922	1141.5595703125	-1487.382568359375	203.3143310546875	916.9328002929689	-1473.899169921875	193.8452606201172	853.1489868164064	-1484.146850585938	224.6423492431641	863.1123657226564	-1446.429809570312	218.2214508056641	763.8524169921876	-1464.009033203125	134.1704406738281	1352.720092773438	-1011.901794433594	160.7118225097656	1169.242553710938	-971.2117309570311	191.6347961425781	1116.210083007812	-994.9764404296874	161.4964599609375	1104.826416015625	-955.5815429687499	207.2891540527344	908.2023315429689	-969.844482421875	226.9032592773438	855.9078979492189	-1001.723876953125	206.4050598144531	845.6839599609376	-955.9105224609375	212.9489898681641	767.3760375976564	-958.6919555664062	108.6290130615234	1136.7470703125	-1494.090209960938	181.2313690185547	620.7546386718751	-2319.14453125	-34.48452758789062	1135.513061523438	-1218.119140625	0.07435110211372375	0.01043719984591008	-0.08772250264883041	0.01609759964048862	0.1105410009622574	-0.09474070370197296	0.03362879902124405	0.008533019572496418	-0.04557419940829277	0.1334770023822784	1.364949941635132	-2.099119901657104	2.055670022964478	2.79065990447998	-2.046169996261597	2.940579891204834	0	0	
800	3.995	200.4057159423828	644.9212036132812	-97.22101593017574	332.7543029785156	1476.464477539062	-1204.778198242188	289.6121215820312	1522.947265625	-1127.847412109375	292.7753295898438	1523.015991210938	-1287.18408203125	73.85931396484375	1462.240234375	-1212.09521484375	-22.88633346557617	1266.122436523438	-1220.257446289062	-31.95112991333008	1238.150146484375	-1223.844360351562	-50.679931640625	1182.58642578125	-1169.55322265625	-41.01427459716797	1177.163696289062	-1217.912963867188	-66.39378356933594	1099.680297851562	-1218.46630859375	-71.43405151367188	1039.797729492188	-1165.943725585938	-74.99300384521484	1038.1640625	-1215.915893554688	-75.46511840820312	987.3554687500001	-1235.209838867188	-66.66903686523438	996.3807983398439	-1185.8759765625	-100.7761764526367	940.7133178710939	-1196.135986328125	73.85581970214844	754.1411743164064	-1440.364990234375	42.37890625	683.5733032226564	-1419.086547851562	86.40052032470703	693.5992431640626	-1441.581787109375	100.3875427246094	346.7501220703126	-1451.239379882812	63.75551605224609	277.529510498047	-1443.173095703125	111.1964950561523	286.1088867187501	-1448.74853515625	38.90066528320312	66.3321075439454	-1372.314331054688	249.1249542236328	74.56162261962899	-1379.091552734375	206.8207244873047	52.44801712036142	-1486.249267578125	66.69017028808594	723.8544311523439	-989.2255859375	116.3893890380859	665.2046508789064	-967.4238891601562	72.12557983398438	661.8067016601564	-990.703125	81.01714324951172	339.0600891113282	-974.871337890625	126.5381240844727	273.7872314453126	-972.4609985351562	77.23347473144531	278.8772583007813	-983.2892456054688	45.63395309448242	64.2840652465821	-1070.507934570312	253.2135772705078	67.56661987304693	-1039.686645507812	200.7034759521484	66.43637847900396	-943.1854858398438	206.7098846435547	1356.383544921875	-1218.123046875	250.7812805175781	1209.05615234375	-1213.545043945312	128.0087280273438	1351.411865234375	-1427.021850585938	129.5599060058594	1197.941650390625	-1484.346435546875	160.7865142822266	1141.022583007812	-1487.307250976562	203.8049774169922	916.2763061523439	-1473.947265625	194.1681823730469	852.5208129882814	-1484.20849609375	225.0252227783203	862.4043579101564	-1446.5224609375	218.3399810791016	763.1652832031251	-1464.10302734375	136.0848846435547	1352.203002929688	-1011.864379882812	162.0080108642578	1168.639038085938	-971.2626342773436	192.7388458251953	1115.500366210938	-995.0559082031249	162.6038208007812	1104.243408203125	-955.6157226562499	207.8028106689453	907.4967041015626	-969.8704833984375	227.2747192382812	855.1535034179689	-1001.758666992188	206.7472381591797	844.9681396484376	-955.9523315429688	213.0979461669922	766.6593627929689	-958.7378540039062	109.8644714355469	1136.369873046875	-1494.058227539062	181.014892578125	620.2244262695314	-2319.223388671875	-33.74477386474609	1135.9189453125	-1218.118774414062	0.07393679767847061	0.01010510046035052	-0.0860086977481842	0.01671680063009262	0.1105979979038239	-0.09409700334072113	0.03422410041093826	0.008948829956352714	-0.04618319869041443	0.1345179975032806	1.410429954528809	-2.098959922790527	2.054349899291992	2.789190053939819	-2.041049957275391	2.940560102462769	0	0	
801	4	200.3236083984375	644.1636962890625	-97.30162811279293	335.1880187988281	1475.015258789062	-1204.682373046875	292.2657775878906	1521.692626953125	-1127.717651367188	295.435546875	1521.765258789062	-1287.078369140625	76.22555541992188	1462.0146484375	-1212.023193359375	-21.46208381652832	1266.421997070312	-1220.20361328125	-30.67963981628418	1238.50927734375	-1223.801513671875	-49.72625732421875	1183.039306640625	-1169.528930664062	-40.08733367919922	1177.574340820312	-1217.889404296875	-65.92987060546875	1100.178100585938	-1218.469970703125	-71.29287719726562	1040.305541992188	-1165.965454101562	-74.83698272705078	1038.700561523438	-1215.946044921875	-75.54580688476562	987.7728271484376	-1235.247314453125	-66.74417877197266	996.7659301757814	-1185.91552734375	-100.9398651123047	941.1549682617189	-1196.19384765625	73.65489196777344	754.1081542968751	-1440.448608398438	42.16773223876953	683.5354003906251	-1419.195678710938	86.19890594482422	693.5715942382814	-1441.67041015625	100.3157196044922	346.7293090820314	-1451.304565429688	63.69980239868164	277.4988708496095	-1443.235107421875	111.1486663818359	286.0892639160157	-1448.782104492188	38.8955192565918	66.33274841308602	-1372.326416015625	249.1162567138672	74.56392669677743	-1379.096801757812	206.8202972412109	52.44281005859384	-1486.253051757812	66.5615234375	723.7465209960939	-989.1854248046875	116.2614059448242	665.1097412109376	-967.466064453125	71.97621154785156	661.6967773437501	-990.6536254882812	81.07008361816406	339.0560302734376	-974.821533203125	126.593635559082	273.7813110351563	-972.4602661132812	77.26934814453125	278.8758850097657	-983.2291259765625	45.62226867675781	64.2806701660157	-1070.49365234375	253.1973419189453	67.54345703125006	-1039.680053710938	200.703857421875	66.43403625488287	-943.1856689453125	208.5711212158203	1355.534790039062	-1218.048095703125	251.8977355957031	1207.966796875	-1213.488525390625	129.9434967041016	1350.959228515625	-1426.94287109375	130.990478515625	1197.510620117188	-1484.27490234375	162.0137176513672	1140.4775390625	-1487.230224609375	204.2935485839844	915.6185302734376	-1474.002807617188	194.4883575439453	851.8886718750001	-1484.272216796875	225.4094696044922	861.6944580078126	-1446.621215820312	218.4618072509766	762.4768066406251	-1464.201416015625	137.9906311035156	1351.675903320312	-1011.822265625	163.3032989501953	1168.029296875	-971.3135986328124	193.8445892333984	1114.787475585938	-995.1350097656249	163.7156372070312	1103.652587890625	-955.6524658203124	208.3226623535156	906.7877197265626	-969.8954467773438	227.6538543701172	854.3970336914064	-1001.790832519531	207.0977478027344	844.2494506835939	-955.9917602539062	213.2546081542969	765.9393310546876	-958.7822875976562	111.087776184082	1135.985473632812	-1494.022216796875	180.8033294677734	619.6975097656251	-2319.303466796875	-33.02474975585938	1136.321411132812	-1218.102661132812	0.07306519895792007	0.009786129929125314	-0.08393380045890808	0.0173810999840498	0.1106610000133514	-0.09332119673490524	0.03466650098562241	0.009430910460650924	-0.04675810039043427	0.1354909986257553	1.449010014533997	-2.098429918289185	2.052799940109253	2.788199901580811	-2.035079956054688	2.940449953079224	0	0	
802	4.005	200.244384765625	643.4017333984375	-97.38269042968746	337.5997924804688	1473.558715820312	-1204.59033203125	294.9002380371094	1520.430419921875	-1127.59228515625	298.06982421875	1520.50439453125	-1286.974853515625	78.57521057128906	1461.775756835938	-1211.947387695312	-20.04477119445801	1266.709106445312	-1220.146240234375	-29.41226959228516	1238.856079101562	-1223.755615234375	-48.77285766601562	1183.47998046875	-1169.5009765625	-39.16129302978516	1177.97412109375	-1217.862915039062	-65.46425628662109	1100.667358398438	-1218.471313476562	-71.14779663085938	1040.806396484375	-1165.98486328125	-74.67681884765625	1039.230712890625	-1215.973754882812	-75.62127685546875	988.1853637695314	-1235.280639648438	-66.81491851806641	997.1453857421876	-1185.950439453125	-101.0977554321289	941.5904541015626	-1196.248168945312	73.46420288085938	754.0784912109376	-1440.527465820312	41.96593856811523	683.5001220703126	-1419.304443359375	86.00782012939453	693.5469970703126	-1441.755859375	100.244010925293	346.7103881835939	-1451.3681640625	63.64477157592773	277.4700012207032	-1443.294799804688	111.1008758544922	286.0708007812501	-1448.81298828125	38.89038467407227	66.33371734619149	-1372.33837890625	249.1085662841797	74.56696319580087	-1379.101684570312	206.81982421875	52.43778228759775	-1486.256713867188	66.43790435791016	723.6378173828126	-989.1469116210938	116.1368865966797	665.0147094726564	-967.5115356445312	71.83075714111328	661.5856933593751	-990.6044311523438	81.12891387939453	339.0524291992188	-974.7755737304688	126.6544876098633	273.7753906250001	-972.4640502929688	77.31423187255859	278.8710632324219	-983.173583984375	45.61123275756836	64.27726745605476	-1070.479736328125	253.1829223632812	67.52156066894537	-1039.675537109375	200.7047576904297	66.43208312988287	-943.1871337890625	210.4178466796875	1354.681030273438	-1217.967651367188	253.0053405761719	1206.878540039062	-1213.42724609375	131.8683776855469	1350.496704101562	-1426.859985351562	132.4083251953125	1197.070678710938	-1484.202758789062	163.2297821044922	1139.924072265625	-1487.152221679688	204.7801208496094	914.9584350585939	-1474.066284179688	194.8054046630859	851.2510986328126	-1484.337158203125	225.7948608398438	860.9816284179689	-1446.725463867188	218.5859680175781	761.7860107421876	-1464.303466796875	139.8854064941406	1351.138671875	-1011.775634765625	164.5956268310547	1167.413452148438	-971.3643798828124	194.9500732421875	1114.07177734375	-995.2134399414061	164.8303375244141	1103.05322265625	-955.6924438476561	208.8457336425781	906.0750122070314	-969.9191284179688	228.0387573242188	853.6384277343751	-1001.819946289062	207.4544982910156	843.5277709960939	-956.0285034179688	213.4167022705078	765.2159423828126	-958.8255004882812	112.2990341186523	1135.593994140625	-1493.98291015625	180.5963134765625	619.1741333007814	-2319.385009765625	-32.32840347290039	1136.721069335938	-1218.06982421875	0.07172729820013046	0.009491779841482645	-0.08144620060920715	0.01805019937455654	0.1106130033731461	-0.09240520000457764	0.03492800146341324	0.009976290166378025	-0.04727739840745926	0.1363839954137802	1.480990052223206	-2.097729921340942	2.05118989944458	2.78767991065979	-2.028830051422119	2.94025993347168	0	0	
